<svg width="15" height="15" viewBox="0 0 15 15" fill="none" xmlns="http://www.w3.org/2000/svg">
<path d="M14.9282 5.08338L10.4275 0.0834998C10.3811 0.0319955 10.3348 -0.00366169 10.2492 0.000300177C10.1814 0.000300177 10.1172 0.0319956 10.0709 0.0874617L2.93821 8.40342C2.34977 9.05713 2.34977 10.1229 2.93465 10.7766L4.74278 12.8288C5.05305 13.1735 5.37045 13.332 5.74492 13.332H7.24634C7.65291 13.332 8.0773 13.1379 8.35904 12.8288L14.9247 5.4756C15.0245 5.36467 15.0245 5.19035 14.9282 5.08338ZM8.00597 12.4366C7.82052 12.6426 7.52095 12.7773 7.24991 12.7773H5.74848C5.50954 12.7773 5.31339 12.6743 5.10298 12.4366L3.29485 10.3844C2.90255 9.94459 2.90255 9.23541 3.29841 8.79168L5.37758 6.36702L9.41824 10.8558L8.00597 12.4366ZM9.77131 10.4636L5.71995 5.96687L10.2528 0.677779L14.3968 5.28147L9.77131 10.4636Z" fill="currentColor"/>
<path d="M0 13.0551C0 13.2096 0.110557 13.3325 0.249644 13.3325H3.24893C3.38802 13.3325 3.49857 13.2096 3.49857 13.0551C3.49857 12.9006 3.38802 12.7778 3.24893 12.7778H0.249644C0.110557 12.7778 0 12.9006 0 13.0551Z" fill="currentColor"/>
<path d="M3.24899 14.4453C3.1099 14.4453 2.99934 14.5682 2.99934 14.7227C2.99934 14.8772 3.1099 15 3.24899 15H9.24756C9.38664 15 9.4972 14.8772 9.4972 14.7227C9.4972 14.5682 9.38664 14.4453 9.24756 14.4453H3.24899Z" fill="currentColor"/>
</svg>
