<svg xmlns="http://www.w3.org/2000/svg" width="16" height="16" fill="none" viewBox="0 0 16 16"><path fill="#000" d="M4.09672 14.3586C4.0191 14.3586 3.94442 14.3278 3.8895 14.2729L1.72808 12.1109C1.67316 12.0559 1.64241 11.9813 1.64241 11.9036C1.64241 11.826 1.67316 11.7514 1.72808 11.6964L3.64638 9.77822C3.76061 9.664 3.94586 9.664 4.0608 9.77822C4.17503 9.89244 4.17503 10.0777 4.0608 10.1926L2.34891 11.9037L4.09668 13.6514L13.324 4.42393L11.577 2.67697L6.94933 7.30439C6.83511 7.41861 6.64985 7.41861 6.53491 7.30439C6.42069 7.19017 6.42069 7.00492 6.53491 6.88999L11.3689 2.05621C11.4831 1.94199 11.6684 1.94199 11.7833 2.05621L13.9448 4.21753C14.059 4.33175 14.059 4.51699 13.9448 4.63193L4.303 14.2738C4.24882 14.328 4.17413 14.3587 4.09651 14.3587L4.09672 14.3586Z"/><path fill="#000" d="M14.2487 4.88503C13.9499 4.88503 13.6688 4.76861 13.4579 4.55775L11.4429 2.54281C11.0065 2.10644 11.0065 1.39696 11.4429 0.961324C11.6538 0.750459 11.9342 0.634043 12.2337 0.634043C12.5324 0.634043 12.8136 0.750457 13.0245 0.961324C13.1387 1.07554 13.1387 1.26079 13.0245 1.37573C12.9102 1.48995 12.725 1.48995 12.61 1.37573C12.509 1.27469 12.375 1.21977 12.233 1.21977C12.0909 1.21977 11.9569 1.27542 11.8566 1.37573C11.6487 1.58367 11.6487 1.92193 11.8566 2.12912L13.8709 4.14331C14.0722 4.34465 14.423 4.34465 14.6243 4.14331C14.7385 4.02909 14.9238 4.02836 15.0387 4.14258C15.153 4.25679 15.1537 4.44204 15.0395 4.55698C14.8286 4.76857 14.5474 4.88503 14.2487 4.88503Z"/><path fill="#000" d="M14.9055 3.5488C14.8308 3.5488 14.7554 3.52025 14.6983 3.46314C14.5841 3.34892 14.5841 3.16294 14.6983 3.04873L15.3016 2.44617C15.3741 2.37368 15.4136 2.27703 15.4136 2.17307C15.4136 2.06911 15.3734 1.97246 15.3009 1.89998L14.1001 0.698477C14.0276 0.625992 13.9309 0.585724 13.827 0.585724C13.723 0.585724 13.6264 0.625992 13.5539 0.698477L12.9505 1.3018C12.8363 1.41601 12.6503 1.41601 12.5361 1.3018C12.4219 1.18758 12.4219 1.00233 12.5361 0.887394L13.1395 0.284076C13.3225 0.101033 13.567 -1.90735e-06 13.827 -1.90735e-06C14.0869 -1.90735e-06 14.3315 0.101037 14.5145 0.284076L15.7146 1.48483C15.8977 1.66714 15.9987 1.91167 15.9987 2.17161C15.9987 2.43153 15.8984 2.67607 15.7153 2.85912L15.1113 3.46244C15.0556 3.52028 14.9802 3.5488 14.9055 3.5488Z"/><path fill="#000" d="M1.29312 15C1.21624 15 1.14155 14.97 1.0859 14.9143C1.01414 14.8426 0.984123 14.7379 1.00829 14.639L1.65922 11.9212C1.69657 11.7638 1.85473 11.6664 2.01214 11.7045C2.16957 11.7418 2.26622 11.9 2.22887 12.0574L1.68923 14.3117L3.94362 13.7721C4.10105 13.7347 4.2592 13.8314 4.29654 13.9888C4.33389 14.1462 4.23723 14.3044 4.07982 14.3417L1.36113 14.9919C1.33843 14.9977 1.31582 15 1.29312 15Z"/><path fill="currentColor" d="M1.44515 14.4221L1.95369 12.3063L3.56646 13.9371L1.44515 14.4221Z"/></svg>